<svg width="32" height="32" viewBox="0 0 32 32" fill="none" xmlns="http://www.w3.org/2000/svg">
<path d="M21.9891 15.44C27.3501 21.945 22.4481 27.584 18.0611 28.681C13.0031 29.946 8.42709 27.314 7.06309 23.291C8.82209 26.158 13.9301 26.779 16.7121 25.033C19.8691 23.05 20.9101 19.568 18.5821 16.743C18.5821 16.743 15.1421 12.603 15.1401 12.602C14.5361 11.871 14.7511 10.871 15.4851 10.267C16.2131 9.66599 17.2011 9.66299 17.8071 10.383L21.9891 15.44ZM12.5551 20.434L12.5421 20.444L13.4481 21.538C14.0541 22.259 15.0421 22.254 15.7711 21.654C16.5031 21.05 16.7191 20.051 16.1151 19.318C16.1151 19.318 15.9701 19.144 15.7501 18.878L15.7591 18.87C14.4071 17.244 12.7551 15.259 12.7551 15.259C10.4271 12.434 11.4681 8.95099 14.6251 6.96899C17.4071 5.22099 22.5141 5.84299 24.2741 8.71099C22.9101 4.68499 18.3351 2.05599 13.2771 3.31999C8.89009 4.41599 3.98809 10.054 9.34909 16.56L12.5551 20.434ZM25.7721 22.993L26.0531 23.435H25.8861L25.6251 23H25.4541V23.435H25.3051V22.434H25.6801C25.9141 22.434 26.0301 22.521 26.0301 22.719C26.0301 22.898 25.9191 22.976 25.7721 22.993ZM25.6321 22.873C25.7601 22.873 25.8711 22.862 25.8711 22.709C25.8711 22.585 25.7601 22.562 25.6571 22.562H25.4531V22.873H25.6321ZM26.5001 22.933C26.5001 23.435 26.1001 23.8 25.6351 23.8C25.1661 23.8 24.7661 23.434 24.7661 22.933C24.7661 22.434 25.1661 22.067 25.6351 22.067C26.1001 22.067 26.5001 22.433 26.5001 22.933ZM26.3271 22.933C26.3271 22.521 26.0201 22.212 25.6351 22.212C25.2421 22.212 24.9391 22.521 24.9391 22.933C24.9391 23.35 25.2431 23.658 25.6351 23.658C26.0201 23.658 26.3271 23.349 26.3271 22.933Z" fill="#0766D1"/>
</svg>
